<svg width="298" height="42" viewBox="0 0 298 42" fill="none" xmlns="http://www.w3.org/2000/svg">
<path d="M7.76 10.344H2.672L1.696 13H0.512L4.592 1.96H5.856L9.92 13H8.736L7.76 10.344ZM7.424 9.416L5.216 3.368L3.008 9.416H7.424ZM13.1735 5.208V10.632C13.1735 11.1653 13.2748 11.5333 13.4775 11.736C13.6802 11.9387 14.0375 12.04 14.5495 12.04H15.5735V13H14.3735C13.5842 13 12.9975 12.8187 12.6135 12.456C12.2295 12.0827 12.0375 11.4747 12.0375 10.632V5.208H10.8215V4.264H12.0375V2.072H13.1735V4.264H15.5735V5.208H13.1735ZM24.9886 4.264V13H23.8686V11.464C23.6126 12.008 23.218 12.424 22.6846 12.712C22.1513 13 21.554 13.144 20.8926 13.144C19.8473 13.144 18.994 12.824 18.3326 12.184C17.6713 11.5333 17.3406 10.5947 17.3406 9.368V4.264H18.4446V9.24C18.4446 10.1893 18.6793 10.9147 19.1486 11.416C19.6286 11.9173 20.2793 12.168 21.1006 12.168C21.9433 12.168 22.6153 11.9013 23.1166 11.368C23.618 10.8347 23.8686 10.0507 23.8686 9.016V4.264H24.9886ZM27.0336 8.616C27.0336 7.72 27.2096 6.936 27.5616 6.264C27.9243 5.58133 28.4203 5.05867 29.0496 4.696C29.6896 4.32267 30.4096 4.136 31.2096 4.136C32.0416 4.136 32.7563 4.328 33.3536 4.712C33.9616 5.096 34.399 5.58667 34.6656 6.184V4.264H35.7856V13H34.6656V11.064C34.3883 11.6613 33.9456 12.1573 33.3376 12.552C32.7403 12.936 32.0256 13.128 31.1936 13.128C30.4043 13.128 29.6896 12.9413 29.0496 12.568C28.4203 12.1947 27.9243 11.6667 27.5616 10.984C27.2096 10.3013 27.0336 9.512 27.0336 8.616ZM34.6656 8.632C34.6656 7.928 34.5216 7.30933 34.2336 6.776C33.9456 6.24267 33.551 5.832 33.0496 5.544C32.559 5.256 32.015 5.112 31.4176 5.112C30.799 5.112 30.2443 5.25067 29.7536 5.528C29.263 5.80533 28.8736 6.21067 28.5856 6.744C28.3083 7.26667 28.1696 7.89067 28.1696 8.616C28.1696 9.33067 28.3083 9.96 28.5856 10.504C28.8736 11.0373 29.263 11.448 29.7536 11.736C30.2443 12.0133 30.799 12.152 31.4176 12.152C32.015 12.152 32.559 12.008 33.0496 11.72C33.551 11.432 33.9456 11.0213 34.2336 10.488C34.5216 9.95467 34.6656 9.336 34.6656 8.632ZM39.4625 1.16V13H38.3425V1.16H39.4625ZM42.5588 2.616C42.3348 2.616 42.1428 2.536 41.9828 2.376C41.8228 2.216 41.7428 2.01867 41.7428 1.784C41.7428 1.54933 41.8228 1.35733 41.9828 1.208C42.1428 1.048 42.3348 0.967999 42.5588 0.967999C42.7828 0.967999 42.9748 1.048 43.1348 1.208C43.2948 1.35733 43.3748 1.54933 43.3748 1.784C43.3748 2.01867 43.2948 2.216 43.1348 2.376C42.9748 2.536 42.7828 2.616 42.5588 2.616ZM43.1188 4.264V13H41.9988V4.264H43.1188ZM46.247 12.072H50.823V13H44.967V12.072L49.463 5.192H45.047V4.264H50.743V5.192L46.247 12.072ZM52.2055 8.616C52.2055 7.72 52.3815 6.936 52.7335 6.264C53.0962 5.58133 53.5922 5.05867 54.2215 4.696C54.8615 4.32267 55.5815 4.136 56.3815 4.136C57.2135 4.136 57.9282 4.328 58.5255 4.712C59.1335 5.096 59.5708 5.58667 59.8375 6.184V4.264H60.9575V13H59.8375V11.064C59.5602 11.6613 59.1175 12.1573 58.5095 12.552C57.9122 12.936 57.1975 13.128 56.3655 13.128C55.5762 13.128 54.8615 12.9413 54.2215 12.568C53.5922 12.1947 53.0962 11.6667 52.7335 10.984C52.3815 10.3013 52.2055 9.512 52.2055 8.616ZM59.8375 8.632C59.8375 7.928 59.6935 7.30933 59.4055 6.776C59.1175 6.24267 58.7228 5.832 58.2215 5.544C57.7308 5.256 57.1868 5.112 56.5895 5.112C55.9708 5.112 55.4162 5.25067 54.9255 5.528C54.4348 5.80533 54.0455 6.21067 53.7575 6.744C53.4802 7.26667 53.3415 7.89067 53.3415 8.616C53.3415 9.33067 53.4802 9.96 53.7575 10.504C54.0455 11.0373 54.4348 11.448 54.9255 11.736C55.4162 12.0133 55.9708 12.152 56.5895 12.152C57.1868 12.152 57.7308 12.008 58.2215 11.72C58.7228 11.432 59.1175 11.0213 59.4055 10.488C59.6935 9.95467 59.8375 9.336 59.8375 8.632ZM67.2424 12.184C67.9784 12.184 68.5917 12.008 69.0824 11.656C69.5837 11.2933 69.909 10.792 70.0584 10.152H71.2584C71.0664 10.9947 70.6504 11.6827 70.0104 12.216C69.381 12.7493 68.581 13.048 67.6104 13.112V14.072C68.2397 14.0507 68.7357 14.168 69.0984 14.424C69.4717 14.6907 69.6584 15.0693 69.6584 15.56C69.6584 16.04 69.4877 16.4187 69.1464 16.696C68.805 16.984 68.3517 17.128 67.7864 17.128H66.1864V16.376H67.5624C67.957 16.376 68.245 16.3067 68.4264 16.168C68.6184 16.04 68.7144 15.8373 68.7144 15.56C68.7144 15.048 68.3304 14.792 67.5624 14.792H66.8264V13.112C66.0797 13.048 65.4184 12.8293 64.8424 12.456C64.2664 12.072 63.813 11.5547 63.4824 10.904C63.1624 10.2427 63.0024 9.48533 63.0024 8.632C63.0024 7.72533 63.1837 6.936 63.5464 6.264C63.909 5.58133 64.4104 5.05867 65.0504 4.696C65.6904 4.32267 66.421 4.136 67.2424 4.136C68.3197 4.136 69.205 4.40267 69.8984 4.936C70.6024 5.46933 71.0557 6.19467 71.2584 7.112H70.0584C69.909 6.48267 69.5837 5.992 69.0824 5.64C68.5917 5.27733 67.9784 5.096 67.2424 5.096C66.6557 5.096 66.1277 5.22933 65.6584 5.496C65.189 5.76267 64.8157 6.16267 64.5384 6.696C64.2717 7.21867 64.1384 7.864 64.1384 8.632C64.1384 9.4 64.2717 10.0507 64.5384 10.584C64.8157 11.1173 65.189 11.5173 65.6584 11.784C66.1277 12.0507 66.6557 12.184 67.2424 12.184ZM77.1509 13.128C76.3295 13.128 75.5882 12.9467 74.9269 12.584C74.2762 12.2107 73.7589 11.688 73.3749 11.016C73.0015 10.3333 72.8149 9.53867 72.8149 8.632C72.8149 7.72533 73.0069 6.936 73.3909 6.264C73.7749 5.58133 74.2975 5.05867 74.9589 4.696C75.6202 4.32267 76.3615 4.136 77.1829 4.136C78.0042 4.136 78.7455 4.32267 79.4069 4.696C80.0789 5.05867 80.6015 5.58133 80.9749 6.264C81.3589 6.936 81.5509 7.72533 81.5509 8.632C81.5509 9.528 81.3589 10.3173 80.9749 11C80.5909 11.6827 80.0629 12.2107 79.3909 12.584C78.7189 12.9467 77.9722 13.128 77.1509 13.128ZM77.1509 12.152C77.7269 12.152 78.2602 12.024 78.7509 11.768C79.2415 11.5013 79.6362 11.1067 79.9349 10.584C80.2442 10.0507 80.3989 9.4 80.3989 8.632C80.3989 7.864 80.2495 7.21867 79.9509 6.696C79.6522 6.16267 79.2575 5.768 78.7669 5.512C78.2762 5.24533 77.7429 5.112 77.1669 5.112C76.5909 5.112 76.0575 5.24533 75.5669 5.512C75.0762 5.768 74.6815 6.16267 74.3829 6.696C74.0949 7.21867 73.9509 7.864 73.9509 8.632C73.9509 9.4 74.0949 10.0507 74.3829 10.584C74.6815 11.1067 75.0709 11.5013 75.5509 11.768C76.0415 12.024 76.5749 12.152 77.1509 12.152ZM75.1029 3.224C75.1669 2.744 75.3215 2.376 75.5669 2.12C75.8122 1.864 76.1269 1.736 76.5109 1.736C76.7029 1.736 76.8682 1.77333 77.0069 1.848C77.1455 1.912 77.3109 2.008 77.5029 2.136C77.6629 2.25333 77.8015 2.344 77.9189 2.408C78.0362 2.46133 78.1642 2.488 78.3029 2.488C78.4842 2.488 78.6389 2.42933 78.7669 2.312C78.8949 2.184 78.9749 2.00267 79.0069 1.768H79.6789C79.6362 2.23733 79.4815 2.60533 79.2149 2.872C78.9589 3.128 78.6389 3.256 78.2549 3.256C78.0522 3.256 77.8762 3.224 77.7269 3.16C77.5882 3.08533 77.4229 2.97867 77.2309 2.84C77.0815 2.72267 76.9482 2.63733 76.8309 2.584C76.7242 2.53067 76.6015 2.504 76.4629 2.504C76.0789 2.504 75.8549 2.744 75.7909 3.224H75.1029ZM91.4965 8.184C91.4965 8.568 91.4858 8.86133 91.4645 9.064H84.2165C84.2485 9.72533 84.4085 10.2907 84.6965 10.76C84.9845 11.2293 85.3632 11.5867 85.8325 11.832C86.3018 12.0667 86.8138 12.184 87.3685 12.184C88.0938 12.184 88.7018 12.008 89.1925 11.656C89.6938 11.304 90.0245 10.8293 90.1845 10.232H91.3685C91.1552 11.0853 90.6965 11.784 89.9925 12.328C89.2992 12.8613 88.4245 13.128 87.3685 13.128C86.5472 13.128 85.8112 12.9467 85.1605 12.584C84.5098 12.2107 83.9978 11.688 83.6245 11.016C83.2618 10.3333 83.0805 9.53867 83.0805 8.632C83.0805 7.72533 83.2618 6.93067 83.6245 6.248C83.9872 5.56533 84.4938 5.04267 85.1445 4.68C85.7952 4.31733 86.5365 4.136 87.3685 4.136C88.2005 4.136 88.9258 4.31733 89.5445 4.68C90.1738 5.04267 90.6538 5.53333 90.9845 6.152C91.3258 6.76 91.4965 7.43733 91.4965 8.184ZM90.3605 8.152C90.3712 7.50133 90.2378 6.94667 89.9605 6.488C89.6938 6.02933 89.3258 5.68267 88.8565 5.448C88.3872 5.21333 87.8752 5.096 87.3205 5.096C86.4885 5.096 85.7792 5.36267 85.1925 5.896C84.6058 6.42933 84.2805 7.18133 84.2165 8.152H90.3605ZM96.5536 13.128C95.551 13.128 94.7296 12.8987 94.0896 12.44C93.4603 11.9707 93.1083 11.336 93.0336 10.536H94.1856C94.239 11.0267 94.4683 11.4267 94.8736 11.736C95.2896 12.0347 95.8443 12.184 96.5376 12.184C97.1456 12.184 97.6203 12.04 97.9616 11.752C98.3136 11.464 98.4896 11.1067 98.4896 10.68C98.4896 10.3813 98.3936 10.136 98.2016 9.944C98.0096 9.752 97.7643 9.60267 97.4656 9.496C97.1776 9.37867 96.783 9.256 96.2816 9.128C95.631 8.95733 95.103 8.78667 94.6976 8.616C94.2923 8.44533 93.9456 8.19467 93.6576 7.864C93.3803 7.52267 93.2416 7.06933 93.2416 6.504C93.2416 6.07733 93.3696 5.68267 93.6256 5.32C93.8816 4.95733 94.2443 4.66933 94.7136 4.456C95.183 4.24267 95.7163 4.136 96.3136 4.136C97.2523 4.136 98.0096 4.376 98.5856 4.856C99.1616 5.32533 99.471 5.976 99.5136 6.808H98.3936C98.3616 6.296 98.159 5.88533 97.7856 5.576C97.423 5.256 96.9216 5.096 96.2816 5.096C95.7163 5.096 95.2576 5.22933 94.9056 5.496C94.5536 5.76267 94.3776 6.09333 94.3776 6.488C94.3776 6.82933 94.479 7.112 94.6816 7.336C94.895 7.54933 95.1563 7.72 95.4656 7.848C95.775 7.96533 96.191 8.09867 96.7136 8.248C97.343 8.41867 97.8443 8.584 98.2176 8.744C98.591 8.904 98.911 9.13867 99.1776 9.448C99.4443 9.75733 99.583 10.168 99.5936 10.68C99.5936 11.1493 99.4656 11.5707 99.2096 11.944C98.9536 12.3067 98.5963 12.5947 98.1376 12.808C97.679 13.0213 97.151 13.128 96.5536 13.128ZM105.581 8.616C105.581 7.72 105.762 6.936 106.125 6.264C106.487 5.58133 106.983 5.05867 107.613 4.696C108.253 4.32267 108.973 4.136 109.773 4.136C110.541 4.136 111.234 4.32267 111.853 4.696C112.471 5.06933 112.925 5.55467 113.213 6.152V1.16H114.333V13H113.213V11.048C112.946 11.656 112.509 12.1573 111.901 12.552C111.293 12.936 110.578 13.128 109.757 13.128C108.957 13.128 108.237 12.9413 107.597 12.568C106.967 12.1947 106.471 11.6667 106.109 10.984C105.757 10.3013 105.581 9.512 105.581 8.616ZM113.213 8.632C113.213 7.928 113.069 7.30933 112.781 6.776C112.493 6.24267 112.098 5.832 111.597 5.544C111.106 5.256 110.562 5.112 109.965 5.112C109.346 5.112 108.791 5.25067 108.301 5.528C107.81 5.80533 107.421 6.21067 107.133 6.744C106.855 7.26667 106.717 7.89067 106.717 8.616C106.717 9.33067 106.855 9.96 107.133 10.504C107.421 11.0373 107.81 11.448 108.301 11.736C108.791 12.0133 109.346 12.152 109.965 12.152C110.562 12.152 111.106 12.008 111.597 11.72C112.098 11.432 112.493 11.0213 112.781 10.488C113.069 9.95467 113.213 9.336 113.213 8.632ZM124.793 8.184C124.793 8.568 124.783 8.86133 124.761 9.064H117.513C117.545 9.72533 117.705 10.2907 117.993 10.76C118.281 11.2293 118.66 11.5867 119.129 11.832C119.599 12.0667 120.111 12.184 120.665 12.184C121.391 12.184 121.999 12.008 122.489 11.656C122.991 11.304 123.321 10.8293 123.481 10.232H124.665C124.452 11.0853 123.993 11.784 123.289 12.328C122.596 12.8613 121.721 13.128 120.665 13.128C119.844 13.128 119.108 12.9467 118.457 12.584C117.807 12.2107 117.295 11.688 116.921 11.016C116.559 10.3333 116.377 9.53867 116.377 8.632C116.377 7.72533 116.559 6.93067 116.921 6.248C117.284 5.56533 117.791 5.04267 118.441 4.68C119.092 4.31733 119.833 4.136 120.665 4.136C121.497 4.136 122.223 4.31733 122.841 4.68C123.471 5.04267 123.951 5.53333 124.281 6.152C124.623 6.76 124.793 7.43733 124.793 8.184ZM123.657 8.152C123.668 7.50133 123.535 6.94667 123.257 6.488C122.991 6.02933 122.623 5.68267 122.153 5.448C121.684 5.21333 121.172 5.096 120.617 5.096C119.785 5.096 119.076 5.36267 118.489 5.896C117.903 6.42933 117.577 7.18133 117.513 8.152H123.657ZM139.137 8.184C139.137 8.568 139.126 8.86133 139.105 9.064H131.857C131.889 9.72533 132.049 10.2907 132.337 10.76C132.625 11.2293 133.004 11.5867 133.473 11.832C133.942 12.0667 134.454 12.184 135.009 12.184C135.734 12.184 136.342 12.008 136.833 11.656C137.334 11.304 137.665 10.8293 137.825 10.232H139.009C138.796 11.0853 138.337 11.784 137.633 12.328C136.94 12.8613 136.065 13.128 135.009 13.128C134.188 13.128 133.452 12.9467 132.801 12.584C132.15 12.2107 131.638 11.688 131.265 11.016C130.902 10.3333 130.721 9.53867 130.721 8.632C130.721 7.72533 130.902 6.93067 131.265 6.248C131.628 5.56533 132.134 5.04267 132.785 4.68C133.436 4.31733 134.177 4.136 135.009 4.136C135.841 4.136 136.566 4.31733 137.185 4.68C137.814 5.04267 138.294 5.53333 138.625 6.152C138.966 6.76 139.137 7.43733 139.137 8.184ZM138.001 8.152C138.012 7.50133 137.878 6.94667 137.601 6.488C137.334 6.02933 136.966 5.68267 136.497 5.448C136.028 5.21333 135.516 5.096 134.961 5.096C134.129 5.096 133.42 5.36267 132.833 5.896C132.246 6.42933 131.921 7.18133 131.857 8.152H138.001ZM146.61 6.6V7.544H140.386V6.6H146.61ZM150.587 6.2C150.875 5.592 151.318 5.096 151.915 4.712C152.523 4.328 153.238 4.136 154.059 4.136C154.859 4.136 155.574 4.32267 156.203 4.696C156.832 5.05867 157.323 5.58133 157.675 6.264C158.038 6.936 158.219 7.72 158.219 8.616C158.219 9.512 158.038 10.3013 157.675 10.984C157.323 11.6667 156.827 12.1947 156.187 12.568C155.558 12.9413 154.848 13.128 154.059 13.128C153.227 13.128 152.507 12.9413 151.899 12.568C151.302 12.184 150.864 11.688 150.587 11.08V13H149.483V1.16H150.587V6.2ZM157.083 8.616C157.083 7.89067 156.939 7.26667 156.651 6.744C156.374 6.21067 155.99 5.80533 155.499 5.528C155.008 5.25067 154.454 5.112 153.835 5.112C153.238 5.112 152.688 5.256 152.187 5.544C151.696 5.832 151.307 6.24267 151.019 6.776C150.731 7.30933 150.587 7.928 150.587 8.632C150.587 9.336 150.731 9.95467 151.019 10.488C151.307 11.0213 151.696 11.432 152.187 11.72C152.688 12.008 153.238 12.152 153.835 12.152C154.454 12.152 155.008 12.0133 155.499 11.736C155.99 11.448 156.374 11.0373 156.651 10.504C156.939 9.96 157.083 9.33067 157.083 8.616ZM164.104 13.128C163.283 13.128 162.541 12.9467 161.88 12.584C161.229 12.2107 160.712 11.688 160.328 11.016C159.955 10.3333 159.768 9.53867 159.768 8.632C159.768 7.72533 159.96 6.936 160.344 6.264C160.728 5.58133 161.251 5.05867 161.912 4.696C162.573 4.32267 163.315 4.136 164.136 4.136C164.957 4.136 165.699 4.32267 166.36 4.696C167.032 5.05867 167.555 5.58133 167.928 6.264C168.312 6.936 168.504 7.72533 168.504 8.632C168.504 9.528 168.312 10.3173 167.928 11C167.544 11.6827 167.016 12.2107 166.344 12.584C165.672 12.9467 164.925 13.128 164.104 13.128ZM164.104 12.152C164.68 12.152 165.213 12.024 165.704 11.768C166.195 11.5013 166.589 11.1067 166.888 10.584C167.197 10.0507 167.352 9.4 167.352 8.632C167.352 7.864 167.203 7.21867 166.904 6.696C166.605 6.16267 166.211 5.768 165.72 5.512C165.229 5.24533 164.696 5.112 164.12 5.112C163.544 5.112 163.011 5.24533 162.52 5.512C162.029 5.768 161.635 6.16267 161.336 6.696C161.048 7.21867 160.904 7.864 160.904 8.632C160.904 9.4 161.048 10.0507 161.336 10.584C161.635 11.1067 162.024 11.5013 162.504 11.768C162.995 12.024 163.528 12.152 164.104 12.152ZM174.37 13.128C173.548 13.128 172.807 12.9467 172.146 12.584C171.495 12.2107 170.978 11.688 170.594 11.016C170.22 10.3333 170.034 9.53867 170.034 8.632C170.034 7.72533 170.226 6.936 170.61 6.264C170.994 5.58133 171.516 5.05867 172.178 4.696C172.839 4.32267 173.58 4.136 174.402 4.136C175.223 4.136 175.964 4.32267 176.626 4.696C177.298 5.05867 177.82 5.58133 178.194 6.264C178.578 6.936 178.77 7.72533 178.77 8.632C178.77 9.528 178.578 10.3173 178.194 11C177.81 11.6827 177.282 12.2107 176.61 12.584C175.938 12.9467 175.191 13.128 174.37 13.128ZM174.37 12.152C174.946 12.152 175.479 12.024 175.97 11.768C176.46 11.5013 176.855 11.1067 177.154 10.584C177.463 10.0507 177.618 9.4 177.618 8.632C177.618 7.864 177.468 7.21867 177.17 6.696C176.871 6.16267 176.476 5.768 175.986 5.512C175.495 5.24533 174.962 5.112 174.386 5.112C173.81 5.112 173.276 5.24533 172.786 5.512C172.295 5.768 171.9 6.16267 171.602 6.696C171.314 7.21867 171.17 7.864 171.17 8.632C171.17 9.4 171.314 10.0507 171.602 10.584C171.9 11.1067 172.29 11.5013 172.77 11.768C173.26 12.024 173.794 12.152 174.37 12.152ZM185.531 13L181.931 9.08V13H180.811V1.16H181.931V8.168L185.451 4.264H187.019L182.875 8.616L187.051 13H185.531ZM191.507 13.128C190.504 13.128 189.683 12.8987 189.043 12.44C188.413 11.9707 188.061 11.336 187.987 10.536H189.139C189.192 11.0267 189.421 11.4267 189.827 11.736C190.243 12.0347 190.797 12.184 191.491 12.184C192.099 12.184 192.573 12.04 192.915 11.752C193.267 11.464 193.443 11.1067 193.443 10.68C193.443 10.3813 193.347 10.136 193.155 9.944C192.963 9.752 192.717 9.60267 192.419 9.496C192.131 9.37867 191.736 9.256 191.235 9.128C190.584 8.95733 190.056 8.78667 189.651 8.616C189.245 8.44533 188.899 8.19467 188.611 7.864C188.333 7.52267 188.195 7.06933 188.195 6.504C188.195 6.07733 188.323 5.68267 188.579 5.32C188.835 4.95733 189.197 4.66933 189.667 4.456C190.136 4.24267 190.669 4.136 191.267 4.136C192.205 4.136 192.963 4.376 193.539 4.856C194.115 5.32533 194.424 5.976 194.467 6.808H193.347C193.315 6.296 193.112 5.88533 192.739 5.576C192.376 5.256 191.875 5.096 191.235 5.096C190.669 5.096 190.211 5.22933 189.859 5.496C189.507 5.76267 189.331 6.09333 189.331 6.488C189.331 6.82933 189.432 7.112 189.635 7.336C189.848 7.54933 190.109 7.72 190.419 7.848C190.728 7.96533 191.144 8.09867 191.667 8.248C192.296 8.41867 192.797 8.584 193.171 8.744C193.544 8.904 193.864 9.13867 194.131 9.448C194.397 9.75733 194.536 10.168 194.547 10.68C194.547 11.1493 194.419 11.5707 194.163 11.944C193.907 12.3067 193.549 12.5947 193.091 12.808C192.632 13.0213 192.104 13.128 191.507 13.128ZM197.679 11.144L196.015 15.336H195.247L196.431 11.144H197.679ZM207.907 4.104C208.953 4.104 209.806 4.42933 210.467 5.08C211.129 5.72 211.459 6.65333 211.459 7.88V13H210.355V8.008C210.355 7.05867 210.115 6.33333 209.635 5.832C209.166 5.33067 208.521 5.08 207.699 5.08C206.857 5.08 206.185 5.34667 205.683 5.88C205.182 6.41333 204.931 7.19733 204.931 8.232V13H203.811V4.264H204.931V5.752C205.209 5.21867 205.609 4.81333 206.131 4.536C206.654 4.248 207.246 4.104 207.907 4.104ZM217.76 13.128C216.939 13.128 216.198 12.9467 215.536 12.584C214.886 12.2107 214.368 11.688 213.984 11.016C213.611 10.3333 213.424 9.53867 213.424 8.632C213.424 7.72533 213.616 6.936 214 6.264C214.384 5.58133 214.907 5.05867 215.568 4.696C216.23 4.32267 216.971 4.136 217.792 4.136C218.614 4.136 219.355 4.32267 220.016 4.696C220.688 5.05867 221.211 5.58133 221.584 6.264C221.968 6.936 222.16 7.72533 222.16 8.632C222.16 9.528 221.968 10.3173 221.584 11C221.2 11.6827 220.672 12.2107 220 12.584C219.328 12.9467 218.582 13.128 217.76 13.128ZM217.76 12.152C218.336 12.152 218.87 12.024 219.36 11.768C219.851 11.5013 220.246 11.1067 220.544 10.584C220.854 10.0507 221.008 9.4 221.008 8.632C221.008 7.864 220.859 7.21867 220.56 6.696C220.262 6.16267 219.867 5.768 219.376 5.512C218.886 5.24533 218.352 5.112 217.776 5.112C217.2 5.112 216.667 5.24533 216.176 5.512C215.686 5.768 215.291 6.16267 214.992 6.696C214.704 7.21867 214.56 7.864 214.56 8.632C214.56 9.4 214.704 10.0507 214.992 10.584C215.291 11.1067 215.68 11.5013 216.16 11.768C216.651 12.024 217.184 12.152 217.76 12.152ZM227.306 11.912L230.25 4.264H231.434L227.93 13H226.666L223.162 4.264H224.362L227.306 11.912ZM236.776 13.128C235.955 13.128 235.213 12.9467 234.552 12.584C233.901 12.2107 233.384 11.688 233 11.016C232.627 10.3333 232.44 9.53867 232.44 8.632C232.44 7.72533 232.632 6.936 233.016 6.264C233.4 5.58133 233.923 5.05867 234.584 4.696C235.245 4.32267 235.987 4.136 236.808 4.136C237.629 4.136 238.371 4.32267 239.032 4.696C239.704 5.05867 240.227 5.58133 240.6 6.264C240.984 6.936 241.176 7.72533 241.176 8.632C241.176 9.528 240.984 10.3173 240.6 11C240.216 11.6827 239.688 12.2107 239.016 12.584C238.344 12.9467 237.597 13.128 236.776 13.128ZM236.776 12.152C237.352 12.152 237.885 12.024 238.376 11.768C238.867 11.5013 239.261 11.1067 239.56 10.584C239.869 10.0507 240.024 9.4 240.024 8.632C240.024 7.864 239.875 7.21867 239.576 6.696C239.277 6.16267 238.883 5.768 238.392 5.512C237.901 5.24533 237.368 5.112 236.792 5.112C236.216 5.112 235.683 5.24533 235.192 5.512C234.701 5.768 234.307 6.16267 234.008 6.696C233.72 7.21867 233.576 7.864 233.576 8.632C233.576 9.4 233.72 10.0507 234.008 10.584C234.307 11.1067 234.696 11.5013 235.176 11.768C235.667 12.024 236.2 12.152 236.776 12.152ZM246.226 13.128C245.223 13.128 244.402 12.8987 243.762 12.44C243.132 11.9707 242.78 11.336 242.706 10.536H243.858C243.911 11.0267 244.14 11.4267 244.546 11.736C244.962 12.0347 245.516 12.184 246.21 12.184C246.818 12.184 247.292 12.04 247.634 11.752C247.986 11.464 248.162 11.1067 248.162 10.68C248.162 10.3813 248.066 10.136 247.874 9.944C247.682 9.752 247.436 9.60267 247.138 9.496C246.85 9.37867 246.455 9.256 245.954 9.128C245.303 8.95733 244.775 8.78667 244.37 8.616C243.964 8.44533 243.618 8.19467 243.33 7.864C243.052 7.52267 242.914 7.06933 242.914 6.504C242.914 6.07733 243.042 5.68267 243.298 5.32C243.554 4.95733 243.916 4.66933 244.386 4.456C244.855 4.24267 245.388 4.136 245.986 4.136C246.924 4.136 247.682 4.376 248.258 4.856C248.834 5.32533 249.143 5.976 249.186 6.808H248.066C248.034 6.296 247.831 5.88533 247.458 5.576C247.095 5.256 246.594 5.096 245.954 5.096C245.388 5.096 244.93 5.22933 244.578 5.496C244.226 5.76267 244.049 6.09333 244.049 6.488C244.049 6.82933 244.151 7.112 244.354 7.336C244.567 7.54933 244.828 7.72 245.138 7.848C245.447 7.96533 245.863 8.09867 246.386 8.248C247.015 8.41867 247.516 8.584 247.89 8.744C248.263 8.904 248.583 9.13867 248.85 9.448C249.116 9.75733 249.255 10.168 249.266 10.68C249.266 11.1493 249.138 11.5707 248.882 11.944C248.626 12.3067 248.268 12.5947 247.81 12.808C247.351 13.0213 246.823 13.128 246.226 13.128ZM256.884 1.16V13H255.764V1.16H256.884ZM259.981 2.616C259.757 2.616 259.565 2.536 259.405 2.376C259.245 2.216 259.165 2.01867 259.165 1.784C259.165 1.54933 259.245 1.35733 259.405 1.208C259.565 1.048 259.757 0.967999 259.981 0.967999C260.205 0.967999 260.397 1.048 260.557 1.208C260.717 1.35733 260.797 1.54933 260.797 1.784C260.797 2.01867 260.717 2.216 260.557 2.376C260.397 2.536 260.205 2.616 259.981 2.616ZM260.541 4.264V13H259.421V4.264H260.541ZM266.181 11.912L269.125 4.264H270.309L266.805 13H265.541L262.037 4.264H263.237L266.181 11.912ZM272.947 5.816C273.192 5.272 273.566 4.85067 274.067 4.552C274.579 4.25333 275.203 4.104 275.939 4.104V5.272H275.635C274.824 5.272 274.174 5.49067 273.683 5.928C273.192 6.36533 272.947 7.096 272.947 8.12V13H271.827V4.264H272.947V5.816ZM281.448 13.128C280.626 13.128 279.885 12.9467 279.224 12.584C278.573 12.2107 278.056 11.688 277.672 11.016C277.298 10.3333 277.112 9.53867 277.112 8.632C277.112 7.72533 277.304 6.936 277.688 6.264C278.072 5.58133 278.594 5.05867 279.256 4.696C279.917 4.32267 280.658 4.136 281.48 4.136C282.301 4.136 283.042 4.32267 283.704 4.696C284.376 5.05867 284.898 5.58133 285.272 6.264C285.656 6.936 285.848 7.72533 285.848 8.632C285.848 9.528 285.656 10.3173 285.272 11C284.888 11.6827 284.36 12.2107 283.688 12.584C283.016 12.9467 282.269 13.128 281.448 13.128ZM281.448 12.152C282.024 12.152 282.557 12.024 283.048 11.768C283.538 11.5013 283.933 11.1067 284.232 10.584C284.541 10.0507 284.696 9.4 284.696 8.632C284.696 7.864 284.546 7.21867 284.248 6.696C283.949 6.16267 283.554 5.768 283.064 5.512C282.573 5.24533 282.04 5.112 281.464 5.112C280.888 5.112 280.354 5.24533 279.864 5.512C279.373 5.768 278.978 6.16267 278.68 6.696C278.392 7.21867 278.248 7.864 278.248 8.632C278.248 9.4 278.392 10.0507 278.68 10.584C278.978 11.1067 279.368 11.5013 279.848 11.768C280.338 12.024 280.872 12.152 281.448 12.152ZM290.897 13.128C289.895 13.128 289.073 12.8987 288.433 12.44C287.804 11.9707 287.452 11.336 287.377 10.536H288.529C288.583 11.0267 288.812 11.4267 289.217 11.736C289.633 12.0347 290.188 12.184 290.881 12.184C291.489 12.184 291.964 12.04 292.305 11.752C292.657 11.464 292.833 11.1067 292.833 10.68C292.833 10.3813 292.737 10.136 292.545 9.944C292.353 9.752 292.108 9.60267 291.809 9.496C291.521 9.37867 291.127 9.256 290.625 9.128C289.975 8.95733 289.447 8.78667 289.041 8.616C288.636 8.44533 288.289 8.19467 288.001 7.864C287.724 7.52267 287.585 7.06933 287.585 6.504C287.585 6.07733 287.713 5.68267 287.969 5.32C288.225 4.95733 288.588 4.66933 289.057 4.456C289.527 4.24267 290.06 4.136 290.657 4.136C291.596 4.136 292.353 4.376 292.929 4.856C293.505 5.32533 293.815 5.976 293.857 6.808H292.737C292.705 6.296 292.503 5.88533 292.129 5.576C291.767 5.256 291.265 5.096 290.625 5.096C290.06 5.096 289.601 5.22933 289.249 5.496C288.897 5.76267 288.721 6.09333 288.721 6.488C288.721 6.82933 288.823 7.112 289.025 7.336C289.239 7.54933 289.5 7.72 289.809 7.848C290.119 7.96533 290.535 8.09867 291.057 8.248C291.687 8.41867 292.188 8.584 292.561 8.744C292.935 8.904 293.255 9.13867 293.521 9.448C293.788 9.75733 293.927 10.168 293.937 10.68C293.937 11.1493 293.809 11.5707 293.553 11.944C293.297 12.3067 292.94 12.5947 292.481 12.808C292.023 13.0213 291.495 13.128 290.897 13.128ZM297.07 11.144L295.406 15.336H294.638L295.822 11.144H297.07ZM2.384 30.184C2.66133 29.5973 3.09867 29.112 3.696 28.728C4.304 28.3333 5.024 28.136 5.856 28.136C6.64533 28.136 7.35467 28.3227 7.984 28.696C8.624 29.0587 9.12 29.5813 9.472 30.264C9.83467 30.936 10.016 31.72 10.016 32.616C10.016 33.512 9.83467 34.3013 9.472 34.984C9.12 35.6667 8.624 36.1947 7.984 36.568C7.35467 36.9413 6.64533 37.128 5.856 37.128C5.03467 37.128 4.32 36.936 3.712 36.552C3.104 36.1573 2.66133 35.6667 2.384 35.08V41.128H1.28V28.264H2.384V30.184ZM8.88 32.616C8.88 31.8907 8.736 31.2667 8.448 30.744C8.17067 30.2107 7.78667 29.8053 7.296 29.528C6.80533 29.2507 6.25067 29.112 5.632 29.112C5.03467 29.112 4.48533 29.256 3.984 29.544C3.49333 29.832 3.104 30.2427 2.816 30.776C2.528 31.3093 2.384 31.928 2.384 32.632C2.384 33.336 2.528 33.9547 2.816 34.488C3.104 35.0213 3.49333 35.432 3.984 35.72C4.48533 36.008 5.03467 36.152 5.632 36.152C6.25067 36.152 6.80533 36.0133 7.296 35.736C7.78667 35.448 8.17067 35.0373 8.448 34.504C8.736 33.96 8.88 33.3307 8.88 32.616ZM13.1969 29.816C13.4422 29.272 13.8155 28.8507 14.3169 28.552C14.8289 28.2533 15.4529 28.104 16.1889 28.104V29.272H15.8849C15.0742 29.272 14.4235 29.4907 13.9329 29.928C13.4422 30.3653 13.1969 31.096 13.1969 32.12V37H12.0769V28.264H13.1969V29.816ZM21.6978 37.128C20.8764 37.128 20.1351 36.9467 19.4738 36.584C18.8231 36.2107 18.3058 35.688 17.9218 35.016C17.5484 34.3333 17.3618 33.5387 17.3618 32.632C17.3618 31.7253 17.5538 30.936 17.9378 30.264C18.3218 29.5813 18.8444 29.0587 19.5058 28.696C20.1671 28.3227 20.9084 28.136 21.7298 28.136C22.5511 28.136 23.2924 28.3227 23.9538 28.696C24.6258 29.0587 25.1484 29.5813 25.5218 30.264C25.9058 30.936 26.0978 31.7253 26.0978 32.632C26.0978 33.528 25.9058 34.3173 25.5218 35C25.1378 35.6827 24.6098 36.2107 23.9378 36.584C23.2658 36.9467 22.5191 37.128 21.6978 37.128ZM21.6978 36.152C22.2738 36.152 22.8071 36.024 23.2978 35.768C23.7884 35.5013 24.1831 35.1067 24.4818 34.584C24.7911 34.0507 24.9458 33.4 24.9458 32.632C24.9458 31.864 24.7964 31.2187 24.4978 30.696C24.1991 30.1627 23.8044 29.768 23.3138 29.512C22.8231 29.2453 22.2898 29.112 21.7138 29.112C21.1378 29.112 20.6044 29.2453 20.1138 29.512C19.6231 29.768 19.2284 30.1627 18.9298 30.696C18.6418 31.2187 18.4978 31.864 18.4978 32.632C18.4978 33.4 18.6418 34.0507 18.9298 34.584C19.2284 35.1067 19.6178 35.5013 20.0978 35.768C20.5884 36.024 21.1218 36.152 21.6978 36.152ZM38.5394 28.104C39.5634 28.104 40.3954 28.4293 41.0354 29.08C41.686 29.72 42.0114 30.6533 42.0114 31.88V37H40.9074V32.008C40.9074 31.0587 40.678 30.3333 40.2194 29.832C39.7607 29.3307 39.1367 29.08 38.3474 29.08C37.526 29.08 36.87 29.352 36.3794 29.896C35.8887 30.44 35.6434 31.2293 35.6434 32.264V37H34.5394V32.008C34.5394 31.0587 34.31 30.3333 33.8514 29.832C33.3927 29.3307 32.7634 29.08 31.9634 29.08C31.142 29.08 30.486 29.352 29.9954 29.896C29.5047 30.44 29.2594 31.2293 29.2594 32.264V37H28.1394V28.264H29.2594V29.768C29.5367 29.224 29.9314 28.8133 30.4434 28.536C30.9554 28.248 31.526 28.104 32.1554 28.104C32.9127 28.104 33.574 28.2853 34.1394 28.648C34.7154 29.0107 35.1314 29.544 35.3874 30.248C35.622 29.5547 36.022 29.0267 36.5874 28.664C37.1634 28.2907 37.814 28.104 38.5394 28.104ZM48.3228 37.128C47.5014 37.128 46.7601 36.9467 46.0988 36.584C45.4481 36.2107 44.9308 35.688 44.5468 35.016C44.1734 34.3333 43.9868 33.5387 43.9868 32.632C43.9868 31.7253 44.1788 30.936 44.5628 30.264C44.9468 29.5813 45.4694 29.0587 46.1308 28.696C46.7921 28.3227 47.5334 28.136 48.3548 28.136C49.1761 28.136 49.9174 28.3227 50.5788 28.696C51.2508 29.0587 51.7734 29.5813 52.1468 30.264C52.5308 30.936 52.7228 31.7253 52.7228 32.632C52.7228 33.528 52.5308 34.3173 52.1468 35C51.7628 35.6827 51.2348 36.2107 50.5628 36.584C49.8908 36.9467 49.1441 37.128 48.3228 37.128ZM48.3228 36.152C48.8988 36.152 49.4321 36.024 49.9228 35.768C50.4134 35.5013 50.8081 35.1067 51.1068 34.584C51.4161 34.0507 51.5708 33.4 51.5708 32.632C51.5708 31.864 51.4214 31.2187 51.1228 30.696C50.8241 30.1627 50.4294 29.768 49.9388 29.512C49.4481 29.2453 48.9148 29.112 48.3388 29.112C47.7628 29.112 47.2294 29.2453 46.7388 29.512C46.2481 29.768 45.8534 30.1627 45.5548 30.696C45.2668 31.2187 45.1228 31.864 45.1228 32.632C45.1228 33.4 45.2668 34.0507 45.5548 34.584C45.8534 35.1067 46.2428 35.5013 46.7228 35.768C47.2134 36.024 47.7468 36.152 48.3228 36.152ZM58.4924 36.184C59.2284 36.184 59.8417 36.008 60.3324 35.656C60.8337 35.2933 61.159 34.792 61.3084 34.152H62.5084C62.3164 34.9947 61.9004 35.6827 61.2604 36.216C60.631 36.7493 59.831 37.048 58.8604 37.112V38.072C59.4897 38.0507 59.9857 38.168 60.3484 38.424C60.7217 38.6907 60.9084 39.0693 60.9084 39.56C60.9084 40.04 60.7377 40.4187 60.3964 40.696C60.055 40.984 59.6017 41.128 59.0364 41.128H57.4364V40.376H58.8124C59.207 40.376 59.495 40.3067 59.6764 40.168C59.8684 40.04 59.9644 39.8373 59.9644 39.56C59.9644 39.048 59.5804 38.792 58.8124 38.792H58.0764V37.112C57.3297 37.048 56.6684 36.8293 56.0924 36.456C55.5164 36.072 55.063 35.5547 54.7324 34.904C54.4124 34.2427 54.2524 33.4853 54.2524 32.632C54.2524 31.7253 54.4337 30.936 54.7964 30.264C55.159 29.5813 55.6604 29.0587 56.3004 28.696C56.9404 28.3227 57.671 28.136 58.4924 28.136C59.5697 28.136 60.455 28.4027 61.1484 28.936C61.8524 29.4693 62.3057 30.1947 62.5084 31.112H61.3084C61.159 30.4827 60.8337 29.992 60.3324 29.64C59.8417 29.2773 59.2284 29.096 58.4924 29.096C57.9057 29.096 57.3777 29.2293 56.9084 29.496C56.439 29.7627 56.0657 30.1627 55.7884 30.696C55.5217 31.2187 55.3884 31.864 55.3884 32.632C55.3884 33.4 55.5217 34.0507 55.7884 34.584C56.0657 35.1173 56.439 35.5173 56.9084 35.784C57.3777 36.0507 57.9057 36.184 58.4924 36.184ZM68.4009 37.128C67.5795 37.128 66.8382 36.9467 66.1769 36.584C65.5262 36.2107 65.0089 35.688 64.6249 35.016C64.2515 34.3333 64.0649 33.5387 64.0649 32.632C64.0649 31.7253 64.2569 30.936 64.6409 30.264C65.0249 29.5813 65.5475 29.0587 66.2089 28.696C66.8702 28.3227 67.6115 28.136 68.4329 28.136C69.2542 28.136 69.9955 28.3227 70.6569 28.696C71.3289 29.0587 71.8515 29.5813 72.2249 30.264C72.6089 30.936 72.8009 31.7253 72.8009 32.632C72.8009 33.528 72.6089 34.3173 72.2249 35C71.8409 35.6827 71.3129 36.2107 70.6409 36.584C69.9689 36.9467 69.2222 37.128 68.4009 37.128ZM68.4009 36.152C68.9769 36.152 69.5102 36.024 70.0009 35.768C70.4915 35.5013 70.8862 35.1067 71.1849 34.584C71.4942 34.0507 71.6489 33.4 71.6489 32.632C71.6489 31.864 71.4995 31.2187 71.2009 30.696C70.9022 30.1627 70.5075 29.768 70.0169 29.512C69.5262 29.2453 68.9929 29.112 68.4169 29.112C67.8409 29.112 67.3075 29.2453 66.8169 29.512C66.3262 29.768 65.9315 30.1627 65.6329 30.696C65.3449 31.2187 65.2009 31.864 65.2009 32.632C65.2009 33.4 65.3449 34.0507 65.6329 34.584C65.9315 35.1067 66.3209 35.5013 66.8009 35.768C67.2915 36.024 67.8249 36.152 68.4009 36.152ZM66.3529 27.224C66.4169 26.744 66.5715 26.376 66.8169 26.12C67.0622 25.864 67.3769 25.736 67.7609 25.736C67.9529 25.736 68.1182 25.7733 68.2569 25.848C68.3955 25.912 68.5609 26.008 68.7529 26.136C68.9129 26.2533 69.0515 26.344 69.1689 26.408C69.2862 26.4613 69.4142 26.488 69.5529 26.488C69.7342 26.488 69.8889 26.4293 70.0169 26.312C70.1449 26.184 70.2249 26.0027 70.2569 25.768H70.9289C70.8862 26.2373 70.7315 26.6053 70.4649 26.872C70.2089 27.128 69.8889 27.256 69.5049 27.256C69.3022 27.256 69.1262 27.224 68.9769 27.16C68.8382 27.0853 68.6729 26.9787 68.4809 26.84C68.3315 26.7227 68.1982 26.6373 68.0809 26.584C67.9742 26.5307 67.8515 26.504 67.7129 26.504C67.3289 26.504 67.1049 26.744 67.0409 27.224H66.3529ZM82.7465 32.184C82.7465 32.568 82.7358 32.8613 82.7145 33.064H75.4665C75.4985 33.7253 75.6585 34.2907 75.9465 34.76C76.2345 35.2293 76.6132 35.5867 77.0825 35.832C77.5518 36.0667 78.0638 36.184 78.6185 36.184C79.3438 36.184 79.9518 36.008 80.4425 35.656C80.9438 35.304 81.2745 34.8293 81.4345 34.232H82.6185C82.4052 35.0853 81.9465 35.784 81.2425 36.328C80.5492 36.8613 79.6745 37.128 78.6185 37.128C77.7972 37.128 77.0612 36.9467 76.4105 36.584C75.7598 36.2107 75.2478 35.688 74.8745 35.016C74.5118 34.3333 74.3305 33.5387 74.3305 32.632C74.3305 31.7253 74.5118 30.9307 74.8745 30.248C75.2372 29.5653 75.7438 29.0427 76.3945 28.68C77.0452 28.3173 77.7865 28.136 78.6185 28.136C79.4505 28.136 80.1758 28.3173 80.7945 28.68C81.4238 29.0427 81.9038 29.5333 82.2345 30.152C82.5758 30.76 82.7465 31.4373 82.7465 32.184ZM81.6105 32.152C81.6212 31.5013 81.4878 30.9467 81.2105 30.488C80.9438 30.0293 80.5758 29.6827 80.1065 29.448C79.6372 29.2133 79.1252 29.096 78.5705 29.096C77.7385 29.096 77.0292 29.3627 76.4425 29.896C75.8558 30.4293 75.5305 31.1813 75.4665 32.152H81.6105ZM87.8036 37.128C86.801 37.128 85.9796 36.8987 85.3396 36.44C84.7103 35.9707 84.3583 35.336 84.2836 34.536H85.4356C85.489 35.0267 85.7183 35.4267 86.1236 35.736C86.5396 36.0347 87.0943 36.184 87.7876 36.184C88.3956 36.184 88.8703 36.04 89.2116 35.752C89.5636 35.464 89.7396 35.1067 89.7396 34.68C89.7396 34.3813 89.6436 34.136 89.4516 33.944C89.2596 33.752 89.0143 33.6027 88.7156 33.496C88.4276 33.3787 88.033 33.256 87.5316 33.128C86.881 32.9573 86.353 32.7867 85.9476 32.616C85.5423 32.4453 85.1956 32.1947 84.9076 31.864C84.6303 31.5227 84.4916 31.0693 84.4916 30.504C84.4916 30.0773 84.6196 29.6827 84.8756 29.32C85.1316 28.9573 85.4943 28.6693 85.9636 28.456C86.433 28.2427 86.9663 28.136 87.5636 28.136C88.5023 28.136 89.2596 28.376 89.8356 28.856C90.4116 29.3253 90.721 29.976 90.7636 30.808H89.6436C89.6116 30.296 89.409 29.8853 89.0356 29.576C88.673 29.256 88.1716 29.096 87.5316 29.096C86.9663 29.096 86.5076 29.2293 86.1556 29.496C85.8036 29.7627 85.6276 30.0933 85.6276 30.488C85.6276 30.8293 85.729 31.112 85.9316 31.336C86.145 31.5493 86.4063 31.72 86.7156 31.848C87.025 31.9653 87.441 32.0987 87.9636 32.248C88.593 32.4187 89.0943 32.584 89.4676 32.744C89.841 32.904 90.161 33.1387 90.4276 33.448C90.6943 33.7573 90.833 34.168 90.8436 34.68C90.8436 35.1493 90.7156 35.5707 90.4596 35.944C90.2036 36.3067 89.8463 36.5947 89.3876 36.808C88.929 37.0213 88.401 37.128 87.8036 37.128ZM105.247 32.184C105.247 32.568 105.236 32.8613 105.215 33.064H97.9665C97.9985 33.7253 98.1585 34.2907 98.4465 34.76C98.7345 35.2293 99.1132 35.5867 99.5825 35.832C100.052 36.0667 100.564 36.184 101.119 36.184C101.844 36.184 102.452 36.008 102.943 35.656C103.444 35.304 103.775 34.8293 103.935 34.232H105.119C104.905 35.0853 104.447 35.784 103.743 36.328C103.049 36.8613 102.175 37.128 101.119 37.128C100.297 37.128 99.5612 36.9467 98.9105 36.584C98.2598 36.2107 97.7478 35.688 97.3745 35.016C97.0118 34.3333 96.8305 33.5387 96.8305 32.632C96.8305 31.7253 97.0118 30.9307 97.3745 30.248C97.7372 29.5653 98.2438 29.0427 98.8945 28.68C99.5452 28.3173 100.287 28.136 101.119 28.136C101.951 28.136 102.676 28.3173 103.295 28.68C103.924 29.0427 104.404 29.5333 104.735 30.152C105.076 30.76 105.247 31.4373 105.247 32.184ZM104.111 32.152C104.121 31.5013 103.988 30.9467 103.711 30.488C103.444 30.0293 103.076 29.6827 102.607 29.448C102.137 29.2133 101.625 29.096 101.071 29.096C100.239 29.096 99.5292 29.3627 98.9425 29.896C98.3558 30.4293 98.0305 31.1813 97.9665 32.152H104.111ZM115.51 37.128C114.689 37.128 113.948 36.9467 113.286 36.584C112.636 36.2107 112.118 35.688 111.734 35.016C111.361 34.3333 111.174 33.5387 111.174 32.632C111.174 31.7253 111.366 30.936 111.75 30.264C112.134 29.5813 112.657 29.0587 113.318 28.696C113.98 28.3227 114.721 28.136 115.542 28.136C116.364 28.136 117.105 28.3227 117.766 28.696C118.438 29.0587 118.961 29.5813 119.334 30.264C119.718 30.936 119.91 31.7253 119.91 32.632C119.91 33.528 119.718 34.3173 119.334 35C118.95 35.6827 118.422 36.2107 117.75 36.584C117.078 36.9467 116.332 37.128 115.51 37.128ZM115.51 36.152C116.086 36.152 116.62 36.024 117.11 35.768C117.601 35.5013 117.996 35.1067 118.294 34.584C118.604 34.0507 118.758 33.4 118.758 32.632C118.758 31.864 118.609 31.2187 118.31 30.696C118.012 30.1627 117.617 29.768 117.126 29.512C116.636 29.2453 116.102 29.112 115.526 29.112C114.95 29.112 114.417 29.2453 113.926 29.512C113.436 29.768 113.041 30.1627 112.742 30.696C112.454 31.2187 112.31 31.864 112.31 32.632C112.31 33.4 112.454 34.0507 112.742 34.584C113.041 35.1067 113.43 35.5013 113.91 35.768C114.401 36.024 114.934 36.152 115.51 36.152ZM129.52 28.264V37H128.4V35.464C128.144 36.008 127.749 36.424 127.216 36.712C126.683 37 126.085 37.144 125.424 37.144C124.379 37.144 123.525 36.824 122.864 36.184C122.203 35.5333 121.872 34.5947 121.872 33.368V28.264H122.976V33.24C122.976 34.1893 123.211 34.9147 123.68 35.416C124.16 35.9173 124.811 36.168 125.632 36.168C126.475 36.168 127.147 35.9013 127.648 35.368C128.149 34.8347 128.4 34.0507 128.4 33.016V28.264H129.52ZM133.533 29.208V34.632C133.533 35.1653 133.634 35.5333 133.837 35.736C134.04 35.9387 134.397 36.04 134.909 36.04H135.933V37H134.733C133.944 37 133.357 36.8187 132.973 36.456C132.589 36.0827 132.397 35.4747 132.397 34.632V29.208H131.181V28.264H132.397V26.072H133.533V28.264H135.933V29.208H133.533ZM138.9 29.816C139.145 29.272 139.519 28.8507 140.02 28.552C140.532 28.2533 141.156 28.104 141.892 28.104V29.272H141.588C140.777 29.272 140.127 29.4907 139.636 29.928C139.145 30.3653 138.9 31.096 138.9 32.12V37H137.78V28.264H138.9V29.816ZM147.401 37.128C146.58 37.128 145.838 36.9467 145.177 36.584C144.526 36.2107 144.009 35.688 143.625 35.016C143.252 34.3333 143.065 33.5387 143.065 32.632C143.065 31.7253 143.257 30.936 143.641 30.264C144.025 29.5813 144.548 29.0587 145.209 28.696C145.87 28.3227 146.612 28.136 147.433 28.136C148.254 28.136 148.996 28.3227 149.657 28.696C150.329 29.0587 150.852 29.5813 151.225 30.264C151.609 30.936 151.801 31.7253 151.801 32.632C151.801 33.528 151.609 34.3173 151.225 35C150.841 35.6827 150.313 36.2107 149.641 36.584C148.969 36.9467 148.222 37.128 147.401 37.128ZM147.401 36.152C147.977 36.152 148.51 36.024 149.001 35.768C149.492 35.5013 149.886 35.1067 150.185 34.584C150.494 34.0507 150.649 33.4 150.649 32.632C150.649 31.864 150.5 31.2187 150.201 30.696C149.902 30.1627 149.508 29.768 149.017 29.512C148.526 29.2453 147.993 29.112 147.417 29.112C146.841 29.112 146.308 29.2453 145.817 29.512C145.326 29.768 144.932 30.1627 144.633 30.696C144.345 31.2187 144.201 31.864 144.201 32.632C144.201 33.4 144.345 34.0507 144.633 34.584C144.932 35.1067 145.321 35.5013 145.801 35.768C146.292 36.024 146.825 36.152 147.401 36.152ZM156.851 37.128C155.848 37.128 155.027 36.8987 154.387 36.44C153.757 35.9707 153.405 35.336 153.331 34.536H154.483C154.536 35.0267 154.765 35.4267 155.171 35.736C155.587 36.0347 156.141 36.184 156.835 36.184C157.443 36.184 157.917 36.04 158.259 35.752C158.611 35.464 158.787 35.1067 158.787 34.68C158.787 34.3813 158.691 34.136 158.499 33.944C158.307 33.752 158.061 33.6027 157.763 33.496C157.475 33.3787 157.08 33.256 156.579 33.128C155.928 32.9573 155.4 32.7867 154.995 32.616C154.589 32.4453 154.243 32.1947 153.955 31.864C153.677 31.5227 153.539 31.0693 153.539 30.504C153.539 30.0773 153.667 29.6827 153.923 29.32C154.179 28.9573 154.541 28.6693 155.011 28.456C155.48 28.2427 156.013 28.136 156.611 28.136C157.549 28.136 158.307 28.376 158.883 28.856C159.459 29.3253 159.768 29.976 159.811 30.808H158.691C158.659 30.296 158.456 29.8853 158.083 29.576C157.72 29.256 157.219 29.096 156.579 29.096C156.013 29.096 155.555 29.2293 155.203 29.496C154.851 29.7627 154.674 30.0933 154.674 30.488C154.674 30.8293 154.776 31.112 154.979 31.336C155.192 31.5493 155.453 31.72 155.763 31.848C156.072 31.9653 156.488 32.0987 157.011 32.248C157.64 32.4187 158.141 32.584 158.515 32.744C158.888 32.904 159.208 33.1387 159.475 33.448C159.741 33.7573 159.88 34.168 159.891 34.68C159.891 35.1493 159.763 35.5707 159.507 35.944C159.251 36.3067 158.893 36.5947 158.435 36.808C157.976 37.0213 157.448 37.128 156.851 37.128ZM162.191 37.08C161.956 37.08 161.759 37 161.599 36.84C161.449 36.68 161.375 36.4827 161.375 36.248C161.375 36.0133 161.449 35.8213 161.599 35.672C161.759 35.512 161.956 35.432 162.191 35.432C162.415 35.432 162.601 35.512 162.751 35.672C162.911 35.8213 162.991 36.0133 162.991 36.248C162.991 36.4827 162.911 36.68 162.751 36.84C162.601 37 162.415 37.08 162.191 37.08Z" fill="url(#paint0_linear_115_7241)"/>
<defs>
<linearGradient id="paint0_linear_115_7241" x1="147.492" y1="-10.64" x2="408.514" y2="248.945" gradientUnits="userSpaceOnUse">
<stop stop-color="#002F52"/>
<stop offset="1" stop-color="#326589"/>
</linearGradient>
</defs>
</svg>
